<?xml version="1.0" encoding="utf-8"?>
<!-- Generator: Adobe Illustrator 27.4.1, SVG Export Plug-In . SVG Version: 6.00 Build 0)  -->
<svg version="1.1" id="Character" xmlns="http://www.w3.org/2000/svg" xmlns:xlink="http://www.w3.org/1999/xlink" x="0px" y="0px"
	 viewBox="0 0 320 198" style="enable-background:new 0 0 320 198;" xml:space="preserve">
<style type="text/css">
	.st0{fill:#FCF7F2;}
	.st1{fill:#FFC7AE;}
	.st2{fill:#EB996E;}
	.st3{fill:#263238;}
	.st4{fill:#455A64;}
	.st5{fill:#FF842C;}
	.st6{opacity:0.3;}
	.st7{fill:#FAFAFA;}
	.st8{fill:#1A1B1C;}
</style>
<rect class="st0" width="320" height="198"/>
<g>
	<path class="st1" d="M287.8,92.9c0,0,7.1-4.3,8.7-3c2.3,1.8,3.1,4.9,3.1,4.9s3.7-14.2,7.3-13.7c2,0.3,1,1.9,0.1,3.9
		c-0.8,1.8-2.3,8.7-2.3,8.7s6.8-8,8.7-7.9c1.5,0.1,1.8,1.5-0.5,3.6c-2.2,2.2-5.9,9-5.9,9s4.7-4.4,6.7-4.4c1.6,0,2.6,1.1,0.5,2.8
		c-2,1.8-5.1,3.1-6.7,6.2c-2,3.9-6.3,13.6-6.3,13.6l-15-5.3c0,0-2.4-9.9-2.5-12.3c0,0,0.2-5.1,0.2-6c0-0.9,2.4-1.1,3.1,0.6
		s0.4,3.6,0.7,4.7c0.3,1.2,0.8,2.2,1.7,2.8c0.9,0.5,3,0.6,3.6-0.1c0.5-0.6,1.2-2.5,1.4-3.7c0.2-1.2,0-3,0-3S288.2,96.9,287.8,92.9
		L287.8,92.9z"/>
	<g>
		<g>
			<path class="st1" d="M119.6,139.3l-10.4-3.9c0,0-10.6-6.2-12.6-4c0,0-2.1-1-3,1.2c-0.5,1.3,1.2,3.2,1.2,3.2s-0.6,0.6,0.3,2.5
				c0.9,1.9,10.9,7.9,10.9,7.9s13.1,7.1,18.4,10.5l9.1-12.4l-1.3-0.5c0,0-0.8-6.2-3.3-7.8c-2.7-1.8-6.1-6.6-6.8-8.6s-4.2-1-3.7,2.9
				c0.6,3.9,3.7,5,3.4,7.6C121.6,140.6,119.6,139.3,119.6,139.3L119.6,139.3z"/>
			<path class="st2" d="M103.6,140.8c0,0.1-2.1-1-4.5-2.4c-2.5-1.4-4.4-2.6-4.4-2.6s2.1,1,4.5,2.4
				C101.7,139.5,103.7,140.7,103.6,140.8z"/>
			<path class="st2" d="M108.7,137.8c0,0-0.7-0.2-1.9-0.7s-2.7-1.2-4.4-2.1s-3.2-1.7-4.2-2.4c-0.5-0.3-0.9-0.6-1.2-0.8
				c-0.3-0.2-0.4-0.3-0.4-0.4c0,0,0.7,0.4,1.7,1c1.1,0.6,2.6,1.5,4.2,2.3s3.2,1.6,4.3,2.1C108,137.4,108.7,137.8,108.7,137.8
				L108.7,137.8z"/>
			<path class="st2" d="M110.9,143.6c0,0-0.3-0.2-0.9-0.5c-0.6-0.4-1.4-0.9-2.4-1.5l0,0l0,0c-0.5-1-1-2.2-1.8-3.4
				c-0.4-0.6-0.8-1.2-1.3-1.8s-1.4-0.6-2.1-0.1c-0.1,0.1-0.3,0.2-0.3,0.3c0,0,0,0,0,0.1l0,0.1c0,0.1,0.1,0.2,0.1,0.3
				c0.1,0.4,0.3,0.7,0.4,1c0.3,0.7,0.5,1.3,0.8,1.9c0.5,1.2,1,2.4,1.4,3.4l0,0c0.8,1,1.6,1.8,2.1,2.4c0.2,0.3,0.4,0.5,0.6,0.7
				c0.1,0.2,0.2,0.2,0.2,0.2c0,0-0.1-0.1-0.2-0.2c-0.2-0.2-0.4-0.4-0.6-0.6c-0.6-0.6-1.3-1.4-2.2-2.4h0v0c-0.4-1-0.9-2.1-1.5-3.3
				c-0.3-0.6-0.5-1.3-0.8-1.9c-0.1-0.3-0.3-0.7-0.4-1c0-0.1-0.1-0.2-0.1-0.3l-0.1-0.1c0-0.1,0-0.1,0-0.2c0.1-0.2,0.1-0.2,0.2-0.3
				c0.1-0.1,0.2-0.1,0.2-0.2c0.4-0.2,0.8-0.4,1.2-0.3c0.4,0,0.8,0.2,1.2,0.5c0.6,0.6,1,1.2,1.4,1.8c0.7,1.2,1.3,2.4,1.7,3.4l0-0.1
				c1,0.6,1.8,1.1,2.4,1.6C110.6,143.3,110.9,143.6,110.9,143.6L110.9,143.6z"/>
		</g>
		<path class="st2" d="M121.3,143.6c0,0-0.5-0.1-1.3-0.3c-0.8-0.2-1.9-0.5-3.1-0.5c-1.2,0-2.3,0.3-3,0.7c-0.7,0.4-1,0.8-1,0.8
			c0,0,0.2-0.5,0.9-1c0.7-0.5,1.8-0.9,3.1-0.9c1.3,0,2.4,0.4,3.1,0.6C120.9,143.4,121.3,143.6,121.3,143.6L121.3,143.6z"/>
		<path class="st2" d="M120.6,140.9c0.1,0.1-0.2,0.5-0.4,1.1c-0.3,0.6-0.4,1.1-0.5,1.1c-0.1,0-0.1-0.6,0.2-1.2
			C120.1,141.2,120.5,140.9,120.6,140.9z"/>
	</g>
	<g>
		<path class="st3" d="M180.5,91.4c0.7-4.9,6.4-11.9,11.5-11.9c-2.9-4.2-2.9-10.1-0.1-14.3c1.9-2.9,5.1-5.1,6.4-8.3
			c1.5-3.7,0.4-7.8,0.5-11.7c0.2-5.8,3.2-11,6.1-16.1c2.7-4.6,5.9-9.6,11.2-10.8c3.3-0.7,6.8,0.3,9.9,1.7
			c15,6.4,26.6,19.8,30.6,35.4c1,3.7,1.6,7.7,4.2,10.6c2.7,3,7.6,4.7,8.4,8.7c0.6,2.8-1.2,5.7-1,8.6c0.2,2.4,4.8,9.5,5.8,11.7
			c1.8,3.8,1.1,7.9-0.7,11.7c-1.8,3.8-6.5,7.5-10.7,8.5l-46.5-15.5c-4.4,2.5-8.7,12.1-13.7,12.7s-11.1,2.8-16-2.5
			C181.6,104.4,179.8,96.3,180.5,91.4L180.5,91.4z"/>
		<path class="st3" d="M255.2,43c-0.5,3.9,0.6,10.3,2.7,13.6c1.4,2.2,3.8,3.7,6.2,5c2.3,1.3,4.8,2.5,6.6,4.5c1.8,2,2.7,4.9,1.5,7.3
			c4.2,1.6,6.1,6.9,4.5,11c-1.5,4.1-5.7,6.9-10.1,7.7l-19.2-5.8l-4.2-24.5L254.2,43"/>
		<path class="st4" d="M259.9,70.2c0,0,0.1,0.1,0.4,0.2c0.2,0.1,0.6,0.3,1.1,0.5c0.9,0.5,2.1,1.4,3.4,2.8c0.6,0.7,1.2,1.5,1.8,2.5
			c0.5,1,1.1,2.1,1.4,3.3c0.8,2.4,0.9,5.3,0,8.2l-0.1-0.2c1.1,0.6,2.2,1.4,3.1,2.4c2.5,2.4,3.8,5.6,4.2,8.5c0.3,3-0.4,5.7-1.4,7.7
			c-1,2-2.2,3.4-3.1,4.2c-0.5,0.4-0.8,0.7-1.1,0.9c-0.3,0.2-0.4,0.3-0.4,0.3c0,0,0.1-0.1,0.4-0.3c0.3-0.2,0.6-0.5,1.1-0.9
			c0.9-0.9,2.1-2.2,3-4.2c1-2,1.6-4.6,1.3-7.5c-0.3-2.9-1.7-6-4.1-8.3c-0.9-0.9-2-1.7-3-2.3l-0.1-0.1l0-0.1c0.8-2.8,0.7-5.6,0-8
			c-0.3-1.2-0.8-2.3-1.3-3.2c-0.6-0.9-1.1-1.8-1.7-2.5c-1.2-1.4-2.4-2.3-3.3-2.8c-0.4-0.3-0.8-0.4-1-0.6
			C260,70.2,259.9,70.2,259.9,70.2L259.9,70.2z"/>
	</g>
	<g>
		<path class="st5" d="M203.2,95.5c0,0-8.6,2.6-11.6,7c-2.1,3.1-23.9,50.2-23.9,50.2l-33-9.9L123,158.3l36.7,20.4
			c6.8,3.8,15.1,3.7,21.9-0.1l0,0c3.8-2.1,6.8-5.3,8.8-9.1l9.3-17.9L203.2,95.5z"/>
		<path class="st5" d="M194.5,198l5.1-22.2l-3.9-16.1c-2.5-8.3-4.7-21.8-1.9-32.7l9.1-31.3l10-4.6l23-3.9c0.9,0.3,24,6.8,24,6.8
			c3.2,0.7,4.5,1.2,4.5,1.2l2.6,17.2l-8,28.3l-3.5,28.2l7.6,29.3L194.5,198L194.5,198z"/>
		<path class="st1" d="M207.7,93.4l6.7-3l30,0.4l7.1,4.1c0,0-24.8,27.4-31,28.3C204.8,125.5,207.7,93.4,207.7,93.4L207.7,93.4z"/>
		<path class="st5" d="M263.7,94.9c0,0,4.5,1,8.3,9.2c3.9,8.2,10.1,31.1,10.1,31.1l2.7-24.2l21.7,2.4l-4.2,57.9
			c0,0-7.7,11.1-20.5,10.1c-12.8-1-29.2-41.6-29.2-41.6L263.7,94.9L263.7,94.9z"/>
		<path class="st3" d="M278.8,164.8c0,0,0-0.1,0-0.1c0-0.1,0-0.2,0-0.4c0-0.4,0-0.9,0.1-1.6c0.1-1.4,0.2-3.4,0.5-5.8
			c0.5-4.9,1.3-11.6,2.3-19s1.9-14.1,2.4-19c0.2-2.4,0.5-4.4,0.6-5.8c0.1-0.7,0.1-1.2,0.2-1.6c0-0.2,0-0.3,0-0.4c0-0.1,0-0.1,0-0.1
			c0,0,0,0.1,0,0.1c0,0.1,0,0.2,0,0.4c0,0.4,0,0.9-0.1,1.6c-0.1,1.4-0.2,3.3-0.5,5.8c-0.5,4.9-1.3,11.6-2.3,19
			c-1,7.4-1.9,14.1-2.4,19c-0.2,2.4-0.5,4.4-0.6,5.8c-0.1,0.7-0.1,1.2-0.1,1.6c0,0.2,0,0.3,0,0.4
			C278.8,164.8,278.8,164.8,278.8,164.8L278.8,164.8z"/>
		<path class="st3" d="M168.2,165.1c0,0-0.1-0.1-0.2-0.4c-0.1-0.3-0.3-0.7-0.5-1.2c-0.4-1.1-0.8-2.6-0.9-4.3s-0.1-3.3,0.1-4.4
			c0.1-0.6,0.2-1,0.2-1.3c0.1-0.3,0.1-0.5,0.1-0.5c0.1,0-0.1,0.7-0.2,1.8c-0.1,1.1-0.2,2.7,0,4.4c0.2,1.7,0.5,3.2,0.9,4.3
			C168,164.5,168.2,165.1,168.2,165.1L168.2,165.1z"/>
		<path class="st3" d="M171.8,165.6c0,0-0.1-0.1-0.4-0.4c-0.2-0.3-0.6-0.7-0.9-1.3c-0.7-1.1-1.6-2.8-2.3-4.7s-1-3.7-1.1-5.1
			c-0.1-0.7-0.1-1.2-0.1-1.6c0-0.4,0-0.6,0-0.6c0.1,0,0.1,0.8,0.3,2.1c0.2,1.3,0.5,3.1,1.2,5c0.7,1.9,1.5,3.5,2.2,4.6
			C171.4,164.9,171.9,165.6,171.8,165.6L171.8,165.6z"/>
		<path class="st3" d="M197.5,113.9c0,0,0,0.2-0.1,0.5c-0.1,0.3-0.2,0.8-0.4,1.3c-0.3,1.2-0.8,2.8-1.4,4.9
			c-1.1,4.1-2.7,9.9-3.4,16.4c-0.4,3.2-0.4,6.4-0.1,9.2c0.3,2.8,0.9,5.3,1.5,7.3s1.2,3.7,1.6,4.8c0.2,0.5,0.3,1,0.5,1.3
			c0.1,0.3,0.1,0.5,0.1,0.5c0,0-0.1-0.1-0.2-0.4c-0.1-0.3-0.3-0.8-0.5-1.3c-0.4-1.1-1-2.7-1.7-4.8c-0.6-2.1-1.3-4.5-1.6-7.4
			c-0.3-2.8-0.3-6,0.1-9.2c0.8-6.5,2.4-12.3,3.5-16.4c0.6-2.1,1.1-3.7,1.5-4.9c0.2-0.6,0.3-1,0.4-1.3
			C197.4,114,197.5,113.9,197.5,113.9L197.5,113.9z"/>
		<path class="st3" d="M258.2,152.1c0,0,0-0.1-0.1-0.1c0-0.1-0.1-0.2-0.2-0.4c-0.2-0.4-0.4-1-0.8-1.7c-0.3-0.7-0.7-1.6-1.2-2.6
			c-0.4-1.1-0.9-2.2-1.4-3.6c-0.5-1.3-1-2.8-1.6-4.4c-0.2-0.8-0.5-1.6-0.8-2.5c-0.1-0.4-0.3-0.9-0.4-1.3c-0.1-0.4-0.2-0.9-0.4-1.4
			c-1-3.6-1.8-7.7-2.1-12.1c-0.3-4.3,0.1-8.5,1.2-12.2c1-3.6,2.9-6.6,4.8-8.7c1.9-2.1,4-3.3,5.4-4c0.7-0.3,1.3-0.5,1.7-0.6
			c0.2-0.1,0.3-0.1,0.5-0.1c0.1,0,0.2,0,0.2,0c0,0,0,0-0.1,0.1c-0.1,0-0.3,0.1-0.5,0.2c-0.4,0.1-1,0.3-1.7,0.7
			c-1.4,0.7-3.4,1.9-5.3,4c-1.9,2.1-3.7,5-4.7,8.6c-1.1,3.6-1.5,7.7-1.2,12.1c0.2,4.3,1.1,8.4,2,12c0.1,0.4,0.2,0.9,0.4,1.3
			c0.1,0.4,0.3,0.9,0.4,1.3c0.3,0.9,0.5,1.7,0.8,2.5c0.6,1.6,1,3.1,1.5,4.4c0.5,1.3,1,2.5,1.4,3.6c0.4,1.1,0.8,1.9,1.1,2.7
			c0.3,0.7,0.5,1.3,0.7,1.7c0.1,0.2,0.1,0.3,0.2,0.4C258.2,152,258.2,152,258.2,152.1L258.2,152.1z"/>
		<g class="st6">
			<path d="M249.9,125.8c-2.8,13.4-2.9,27.2,2,40c0.3,0.7,1.4,3.4,2.2,3.4c1,0.1,1.5-1.2,1.7-2.2c0.4-2,0.6-5.4,0.9-7.4
				c0.5-2.6,1.1-8.5,1.1-8.5s-2.3-5.4-3.4-8.2c-1.9-5.3-3.5-10.4-4.4-16.7"/>
		</g>
		<path class="st3" d="M247.6,177.8c0,0-0.1,0.1-0.2,0.4c-0.2,0.2-0.4,0.6-0.7,1c-0.2,0.2-0.3,0.4-0.5,0.7c-0.2,0.2-0.4,0.5-0.7,0.8
			c-0.5,0.6-1,1.2-1.7,1.9c-0.3,0.3-0.7,0.7-1,1c-0.4,0.4-0.8,0.7-1.2,1c-0.8,0.7-1.8,1.4-2.8,2.1c-2.1,1.4-4.4,2.7-7.1,3.7
			c-2.7,1-5.3,1.7-7.7,2.1c-1.2,0.1-2.4,0.3-3.5,0.3c-0.6,0-1.1,0.1-1.6,0.1c-0.5,0-1,0-1.5-0.1c-0.9,0-1.8-0.1-2.5-0.2
			c-0.4,0-0.7-0.1-1-0.1c-0.3-0.1-0.6-0.1-0.9-0.2c-0.5-0.1-0.9-0.2-1.2-0.2c-0.3-0.1-0.4-0.1-0.4-0.1c0,0,0.1,0,0.4,0.1
			c0.3,0.1,0.7,0.1,1.2,0.2c0.3,0,0.5,0.1,0.9,0.1c0.3,0,0.6,0.1,1,0.1c0.7,0.1,1.6,0.2,2.5,0.2c0.5,0,0.9,0,1.4,0
			c0.5,0,1-0.1,1.6-0.1c1.1,0,2.2-0.2,3.4-0.4c2.4-0.4,5-1.1,7.7-2.1c2.6-1,5-2.3,7-3.7c1-0.7,2-1.4,2.8-2.1c0.4-0.4,0.8-0.7,1.2-1
			c0.4-0.4,0.7-0.7,1.1-1c0.7-0.6,1.2-1.3,1.7-1.8c0.2-0.3,0.5-0.5,0.7-0.8c0.2-0.2,0.4-0.5,0.5-0.7c0.3-0.4,0.6-0.7,0.7-0.9
			C247.5,177.9,247.6,177.8,247.6,177.8L247.6,177.8z"/>
		<path class="st3" d="M242.9,168.9c0,0,0,0.2-0.1,0.6c-0.1,0.4-0.2,1-0.4,1.7c-0.4,1.4-1.2,3.3-2.4,5.2c-1.2,1.9-2.7,3.4-3.8,4.3
			c-0.6,0.5-1,0.8-1.4,1.1c-0.3,0.2-0.5,0.4-0.6,0.3c0,0,0.7-0.6,1.8-1.6c1.1-1,2.5-2.5,3.7-4.3c1.2-1.9,2-3.7,2.5-5.1
			C242.6,169.8,242.8,168.9,242.9,168.9L242.9,168.9z"/>
	</g>
	<g>
		<g>
			<path class="st5" d="M232.3,14.6c8.1,0.1,16.1,4.6,20.2,11.6c4.1,7,4.2,16.2,0.3,23.3c-1.3,2.4-3.2,4.7-5.9,5.6
				c0.9-13.9-4.6-28.1-14.8-37.8"/>
			<path class="st5" d="M241.8,16.7c-1.2-2.5,0.1-5.6,2.2-7.4c2.1-1.8,4.9-2.5,7.7-3.1s5.5-1.3,7.7-3c-0.3,4.4-1.4,8.9-4.2,12.2
				c-2.8,3.3-7.7,5.2-11.7,3.5"/>
			<path class="st5" d="M244.6,19.6c-1.9,0.8-4.1,0.3-5.7-0.8s-2.8-2.8-3.8-4.6c-1.2-2.2-2.1-4.5-2.4-6.9s0-5,1.2-7.2
				c3.2,3.4,6.7,6.2,8.5,10.5c1.1,2.5,0.9,6.6-0.2,9"/>
			<path class="st3" d="M253.6,33.7c0,0,0.1,0.3,0.2,0.8c0,0.3,0.1,0.6,0.1,1c0,0.4,0.1,0.8,0.1,1.3c0.1,1,0,2.1-0.1,3.3
				c-0.1,1.2-0.3,2.6-0.6,4c-0.3,1.4-0.8,2.7-1.2,3.9c-0.5,1.2-1,2.2-1.4,3c-0.2,0.4-0.5,0.8-0.7,1.1s-0.4,0.6-0.5,0.8
				c-0.3,0.4-0.5,0.7-0.5,0.7c0,0,0.1-0.3,0.4-0.7c0.1-0.2,0.3-0.5,0.5-0.8c0.2-0.3,0.4-0.7,0.6-1.1c0.4-0.8,0.9-1.8,1.4-3
				c0.4-1.2,0.9-2.5,1.2-3.9c0.3-1.4,0.5-2.8,0.7-4c0.1-1.2,0.1-2.4,0.1-3.3c0-0.5,0-0.9-0.1-1.3c0-0.4,0-0.7-0.1-1
				C253.6,34,253.6,33.7,253.6,33.7L253.6,33.7z"/>
			<path class="st3" d="M251.8,18.1c0,0-0.2,0.2-0.6,0.5c-0.5,0.2-1.2,0.6-2.1,0.8c-1.9,0.4-4.6,0.3-7.4-0.4l-0.1,0l0-0.1
				c0-0.2-0.1-0.4-0.1-0.5c-0.3-1.5-0.4-3-0.2-4.3c0.2-1.3,0.6-2.5,1.2-3.3c0.6-0.9,1.3-1.3,1.7-1.6c0.5-0.3,0.8-0.4,0.8-0.4
				c0,0-0.2,0.2-0.7,0.5c-0.4,0.4-1.1,0.8-1.6,1.7c-0.6,0.8-1,1.9-1.1,3.2c-0.2,1.3-0.1,2.7,0.2,4.2c0,0.2,0.1,0.4,0.1,0.5l-0.1-0.1
				c2.8,0.8,5.5,0.9,7.3,0.5c0.9-0.2,1.6-0.5,2.1-0.7C251.6,18.2,251.8,18,251.8,18.1L251.8,18.1z"/>
			<path class="st3" d="M254.2,10.5c0,0.1-0.9,0.2-2.2,0.6c-0.7,0.2-1.4,0.5-2.3,0.9c-0.8,0.4-1.7,0.9-2.6,1.4
				c-0.9,0.6-1.7,1.2-2.4,1.8c-0.7,0.6-1.2,1.2-1.7,1.8c-0.9,1.1-1.4,1.8-1.4,1.8c0,0,0.1-0.2,0.3-0.5c0.2-0.3,0.5-0.8,0.9-1.4
				c0.4-0.6,1-1.2,1.7-1.8c0.7-0.6,1.5-1.3,2.4-1.9c0.9-0.6,1.8-1.1,2.7-1.4c0.9-0.4,1.7-0.6,2.3-0.8s1.2-0.3,1.6-0.3
				C254,10.5,254.2,10.5,254.2,10.5L254.2,10.5z"/>
			<path class="st3" d="M244.5,19.5c0,0,0,0.1,0,0.2s-0.1,0.3-0.2,0.5c-0.2,0.4-0.5,1-1.1,1.5c-0.6,0.5-1.5,0.9-2.6,0.8
				c-1.1,0-2.2-0.7-2.9-1.7s-0.9-2.3-0.5-3.3c0.3-1,1.1-1.7,1.7-2.1c0.7-0.4,1.3-0.5,1.8-0.6c0.2,0,0.4,0,0.5,0c0.1,0,0.2,0,0.2,0
				c0,0-0.2,0-0.7,0.1c-0.4,0.1-1,0.2-1.7,0.6c-0.6,0.4-1.3,1.1-1.6,2c-0.3,0.9-0.1,2.1,0.5,3s1.7,1.5,2.6,1.6
				c1,0.1,1.9-0.3,2.5-0.7c0.6-0.5,1-1,1.2-1.3C244.4,19.7,244.4,19.5,244.5,19.5L244.5,19.5z"/>
			<path class="st3" d="M237.4,19.6c0,0-0.2-0.3,0.1-0.8c0.1-0.2,0.4-0.4,0.7-0.5c0.3-0.1,0.7-0.1,1-0.1c1.4,0.1,2.5,0.7,2.5,0.7
				c0,0.1-1.1-0.3-2.5-0.4c-0.7-0.1-1.3,0.1-1.5,0.5C237.4,19.3,237.5,19.6,237.4,19.6L237.4,19.6z"/>
			<path class="st3" d="M233.8,0c0.1,0-0.6,0.9-0.9,2.5c-0.1,0.8-0.1,1.8-0.1,2.9c0,1.1,0.1,2.3,0.3,3.5c0.6,2.4,1.6,4.6,2.5,5.9
				c0.5,0.7,0.9,1.2,1.2,1.6c0.3,0.4,0.5,0.5,0.5,0.5c0,0-0.8-0.6-1.8-2c-1-1.4-2-3.4-2.6-6c-0.2-1.3-0.3-2.5-0.3-3.6s0-2.1,0.2-2.9
				c0.1-0.8,0.4-1.5,0.7-1.9C233.7,0.2,233.8,0,233.8,0z"/>
			<path class="st3" d="M236.9,6.9c0,0,0.4,0.3,0.8,1s1,1.6,1.6,2.7c0.5,1.1,0.8,2.2,1,2.9c0.2,0.8,0.2,1.3,0.2,1.3
				c-0.1,0-0.5-1.9-1.5-4.1C237.9,8.5,236.8,7,236.9,6.9L236.9,6.9z"/>
			<path class="st3" d="M235.9,10.5c0.1-0.1,1,0.9,2.3,2.1c1.3,1.2,2.3,2.1,2.2,2.2c-0.1,0.1-1.2-0.8-2.4-2S235.8,10.6,235.9,10.5
				L235.9,10.5z"/>
			<path class="st7" d="M251.1,24.2C251.1,24.2,251.1,24.2,251.1,24.2c-0.2,0.1-0.2,0.2-0.3,0.3c-0.2,0.2-0.6,0.4-1,0.7
				c-0.9,0.6-2.1,1.3-3.7,1.8s-3,0.7-4,0.7c-0.5,0-0.9,0-1.2,0c-0.1,0-0.2,0-0.3,0c-0.1,0-0.1,0-0.1,0c0,0,0,0,0.1,0
				c0.1,0,0.2,0,0.3,0c0.3,0,0.7,0,1.2,0c1-0.1,2.5-0.3,4-0.8c1.5-0.5,2.8-1.2,3.7-1.7c0.4-0.3,0.8-0.5,1-0.7
				C250.8,24.4,250.9,24.3,251.1,24.2C251.1,24.2,251.1,24.2,251.1,24.2L251.1,24.2z"/>
			<path class="st7" d="M254.5,31.2C254.5,31.2,254.5,31.3,254.5,31.2c-0.2,0.1-0.2,0.2-0.3,0.3c-0.2,0.2-0.6,0.4-1,0.7
				c-0.9,0.6-2.1,1.3-3.6,1.8c-1.5,0.5-2.9,0.8-4,0.9c-0.5,0-0.9,0.1-1.2,0.1c-0.1,0-0.2,0-0.3,0c-0.1,0-0.1,0-0.1,0s0,0,0.1,0
				c0.1,0,0.2,0,0.3,0c0.3,0,0.7,0,1.2-0.1c1-0.1,2.4-0.4,3.9-0.9c1.5-0.5,2.8-1.2,3.6-1.8c0.4-0.3,0.8-0.5,1-0.7
				C254.3,31.4,254.4,31.4,254.5,31.2C254.5,31.3,254.5,31.2,254.5,31.2L254.5,31.2z"/>
			<path class="st7" d="M253.6,41.5c0,0-0.1,0.1-0.2,0.2c-0.2,0.1-0.4,0.3-0.7,0.4c-0.6,0.3-1.5,0.7-2.6,1c-1,0.3-2,0.4-2.7,0.4
				c-0.4,0-0.6,0-0.8,0c-0.2,0-0.3,0-0.3,0s0.1,0,0.3,0c0.2,0,0.5,0,0.8,0c0.7,0,1.7-0.1,2.7-0.4c1-0.3,1.9-0.7,2.6-1
				c0.3-0.2,0.6-0.3,0.7-0.4S253.6,41.5,253.6,41.5L253.6,41.5z"/>
			<path class="st7" d="M255.6,39.9c0,0-0.4,0.1-0.8,0.2c-0.4,0.1-0.8,0.1-0.8,0.1s0.4-0.1,0.8-0.2
				C255.2,39.9,255.5,39.9,255.6,39.9z"/>
			<path class="st7" d="M249.8,52c0,0-0.6,0.1-1.3,0.1s-1.3-0.2-1.3-0.3c0,0,0.6,0.1,1.3,0.1S249.8,52,249.8,52z"/>
			<path class="st7" d="M238.7,21.6c0,0-0.3,0.2-0.8,0.5c-0.4,0.2-0.8,0.4-0.8,0.4s0.3-0.2,0.8-0.5
				C238.3,21.7,238.7,21.5,238.7,21.6z"/>
			<path class="st7" d="M235.8,15.5c0,0-0.8,0.3-1.7,0.9c-0.9,0.6-1.4,1.3-1.4,1.3c0,0,0.1-0.2,0.3-0.5c0.2-0.3,0.6-0.6,1-0.9
				c0.4-0.3,0.9-0.5,1.2-0.7C235.6,15.5,235.8,15.5,235.8,15.5L235.8,15.5z"/>
			<path class="st7" d="M241.1,22.2c0,0,0.2-0.8,0-1.8c-0.1-1-0.5-1.7-0.5-1.7c0,0,0.1,0.2,0.3,0.5c0.1,0.3,0.3,0.7,0.3,1.2
				c0.1,0.5,0,1,0,1.3C241.2,22.1,241.1,22.2,241.1,22.2L241.1,22.2z"/>
			<path class="st7" d="M259.1,3.2c0,0-0.2,0.3-0.6,0.7c-0.4,0.4-1.1,1-2,1.5c-0.9,0.6-2.1,1.2-3.4,1.7s-2.8,1.1-4.2,1.9
				s-2.8,1.5-3.9,2.5c-1.1,0.9-1.8,2-2.3,2.9c-0.5,1-0.6,1.8-0.7,2.4c-0.1,0.6,0,0.9,0,0.9c0,0,0-0.1,0-0.2c0-0.2,0-0.4,0-0.7
				c0-0.6,0.2-1.5,0.7-2.4c0.5-1,1.2-2,2.3-3s2.4-1.8,3.9-2.5c1.5-0.7,2.9-1.3,4.2-1.8c1.3-0.6,2.4-1.1,3.4-1.7s1.6-1.1,2-1.5
				c0.2-0.2,0.4-0.4,0.5-0.5C259,3.3,259.1,3.2,259.1,3.2z"/>
			<path class="st7" d="M257.5,10.2c0,0,0,0.1-0.1,0.1c-0.1,0.1-0.2,0.2-0.2,0.4c-0.2,0.3-0.5,0.8-1,1.3c-0.9,1.1-2.2,2.4-3.8,3.7
				c-1.6,1.3-3.3,2.2-4.6,2.8c-0.6,0.3-1.1,0.5-1.5,0.6c-0.1,0-0.3,0.1-0.4,0.1c-0.1,0-0.1,0-0.1,0c0,0,0.1,0,0.1-0.1
				c0.1,0,0.3-0.1,0.4-0.2c0.4-0.1,0.9-0.4,1.5-0.6c1.2-0.6,2.9-1.5,4.5-2.8c1.6-1.3,2.9-2.6,3.8-3.7c0.4-0.5,0.8-1,1-1.3
				C257.3,10.5,257.4,10.4,257.5,10.2C257.5,10.2,257.5,10.1,257.5,10.2L257.5,10.2z"/>
			<path class="st7" d="M233.2,2c0,0,0.7,0.3,1.8,0.9c1.1,0.7,2.4,1.7,3.6,3.2c1.2,1.5,1.9,3,2.3,4.2c0.4,1.2,0.5,1.9,0.5,1.9
				s0,0,0-0.1c0-0.1-0.1-0.2-0.1-0.4c-0.1-0.3-0.2-0.8-0.4-1.4c-0.4-1.1-1.2-2.7-2.3-4.2C237.3,4.7,236,3.7,235,3
				c-0.5-0.3-0.9-0.6-1.2-0.8c-0.1-0.1-0.2-0.1-0.4-0.2C233.3,2,233.2,2,233.2,2L233.2,2z"/>
		</g>
		<g>
			<g>
				<path class="st3" d="M204,23.9c0.2,3.1-1.8,5.8-3.9,8.2c-2.1,2.3-4.3,4.7-4.8,7.8c-0.8,5.4,4.5,10.5,3.4,15.8
					c-0.6,2.9-2.9,5.2-3.4,8.1c-0.4,2.8,1.1,5.6,3,7.7s4,1.8,5.7,4.1c1.7,2.4,4.5,4.9,7.2,6.4c5.9,3.3,13.1-1.5,16-2.3"/>
				<path class="st3" d="M249.1,36.5c2.7-1.2,3-11-3.9-12.2c-2.8-0.5-5.1-1.8-7.4-3.4c-2.1-1.4-2.7-4.9-4.4-6.7
					c-4.3-4.3-10.9-6.1-16.8-4.5c-5.9,1.6-10.7,6.5-12.2,12.4c-1,4-0.3,8.7,2.8,11.3c3.6,3.1,9.1,2.4,13.7,1.4s10-1.9,13.9,0.8
					c2.4,1.7,3.7,4.3,5.1,6.8s3.2,5,6,6c0,0,2.1,4.9,0.4,8.2c-1.7,3.4,2-2.4,2-2.4S254.9,42.6,249.1,36.5"/>
				<g>
					<g>
						<path class="st1" d="M214.2,105.5c0-6.4,0-24.5,0-24.4c0,0-10.2-1.7-12.3-15c-1-6.6-0.7-17.5-0.1-26.3
							c0.5-8,5.8-17.8,13.8-16.9l24.8,6.3c2.4,0.3,4.2,2.3,4.2,4.8l0,0l-1.5,61.7L214.2,105.5L214.2,105.5z"/>
						<g>
							<path class="st3" d="M206,47.3c0,0.9,0.7,1.7,1.6,1.7c0.9,0,1.7-0.6,1.8-1.5c0-0.9-0.7-1.7-1.6-1.7
								C206.8,45.8,206.1,46.4,206,47.3L206,47.3z"/>
							<path class="st3" d="M204.1,45.4c0.2,0.2,1.5-0.7,3.3-0.7c1.8,0,3.2,0.9,3.4,0.7c0.1-0.1-0.1-0.5-0.7-0.9s-1.6-0.8-2.7-0.8
								c-1.1,0-2.1,0.4-2.7,0.8C204.2,44.9,204,45.3,204.1,45.4z"/>
						</g>
						<path class="st3" d="M222.2,48.3c0.2,0.2,1.5-0.7,3.3-0.7c1.8,0,3.2,0.9,3.4,0.7c0.1-0.1-0.1-0.5-0.7-0.9
							c-0.6-0.4-1.6-0.8-2.7-0.8c-1.1,0-2.1,0.4-2.7,0.8C222.3,47.8,222.1,48.2,222.2,48.3z"/>
						<path class="st3" d="M215.5,59.4c0-0.1-1.1-0.3-3-0.5c-0.5,0-0.9-0.1-1-0.5c-0.1-0.3,0.1-0.8,0.3-1.4c0.4-1.1,0.9-2.3,1.4-3.6
							c1.9-5.1,3.3-9.3,3.1-9.3c-0.2-0.1-1.9,4-3.9,9.1c-0.5,1.2-0.9,2.5-1.3,3.6c-0.2,0.5-0.5,1.1-0.2,1.8c0.1,0.3,0.5,0.6,0.8,0.7
							c0.3,0.1,0.6,0.1,0.8,0.1C214.3,59.5,215.5,59.5,215.5,59.4L215.5,59.4z"/>
						<path class="st2" d="M214.2,81.1c0,0,8.9,0.6,17.8-4.7c-0.1,0-4.9,9.2-17.7,7.9L214.2,81.1z"/>
						<path class="st2" d="M216,64.7c-0.2-1.1,1.1-1.5,2.1-2.1c1-0.6,1.5-1.4,2.5-0.7c0.5,0.4,0.9,1,1.1,1.6
							c0.2,0.4,0.3,0.9,0.2,1.3c-0.1,0.5-0.4,1-0.8,1.4c-0.6,0.5-1.2,0.9-2,1c-0.8,0.1-1.6,0-2.2-0.5S216,65.4,216,64.7"/>
						<path class="st3" d="M220.9,60.7c-0.3,0-0.3,2-2,3.4c-1.7,1.4-3.8,1.2-3.9,1.5c0,0.1,0.5,0.4,1.4,0.4c0.9,0,2.2-0.2,3.2-1.1
							c1-0.9,1.5-2,1.6-2.8C221.3,61.2,221,60.7,220.9,60.7L220.9,60.7z"/>
					</g>
					<path class="st3" d="M221.9,44.2c0.2,0.5,2,0.3,4.2,0.5c2.2,0.2,3.9,0.9,4.2,0.4c0.1-0.2-0.2-0.7-0.9-1.2
						c-0.7-0.5-1.8-1-3.1-1.1c-1.3-0.1-2.5,0.1-3.3,0.4C222.2,43.6,221.8,44,221.9,44.2L221.9,44.2z"/>
					<path class="st3" d="M204.4,39c0.3,0.4,1.6,0,3.1,0c1.5-0.1,2.8,0.3,3.1-0.2c0.1-0.2-0.1-0.6-0.6-1c-0.6-0.4-1.5-0.7-2.5-0.7
						c-1.1,0-1.9,0.4-2.5,0.8C204.4,38.4,204.3,38.8,204.4,39L204.4,39z"/>
				</g>
				<path class="st3" d="M246.1,73.7c-3.7,0.7-4-1.1-6.7-3.7c-2.7-2.5-4.1-6.4-3.7-10.1c0.4-3.3,2.2-6.6,1-9.7
					c-1.5-4.1-7.2-5.3-8.8-9.4c-0.9-2.4-0.1-5.2-1.1-7.5c-0.9-2.2-3.2-3.5-5.5-4.3c-2.2-0.8-4.6-1.4-6.5-2.8s-3.1-4.2-1.8-6.3
					c9.9,1.2,19.7,3.6,29.1,7.1c2.2,0.8,4.4,1.8,5.7,3.7c1.4,2,1.3,4.7,1.2,7.1c-0.6,12-1.1,23.9-1.7,35.9"/>
			</g>
			<path class="st4" d="M254.5,69.2c0,0,0.1-0.1,0.1-0.2c0.1-0.1,0.2-0.3,0.4-0.5c0.3-0.5,0.7-1.3,0.9-2.3c0.2-1.1,0.2-2.4-0.2-3.9
				c-0.4-1.5-1.4-3.1-3.1-4.2c-1.6-1.1-3.6-1.9-4.9-3.7c-0.6-0.9-0.9-2-0.7-3.1c0.2-1.1,0.7-2.3,1.2-3.5c1-2.4,1-5.4-0.2-8
				c-0.6-1.3-1.5-2.5-2.7-3.4c-1.2-0.9-2.6-1.4-4.1-1.7c-1.4-0.3-2.9-0.5-4.2-0.9c-1.3-0.4-2.6-1-3.5-1.9c-0.9-0.9-1.4-2.2-1.5-3.5
				s-0.3-2.6-0.6-3.9c-0.6-2.5-1.9-4.7-3.6-6.3c-1.7-1.6-3.7-2.5-5.7-2.8c-1.9-0.3-3.8,0.1-5.1,0.8c-1.4,0.7-2.4,1.7-3,2.6
				c-0.6,0.9-0.9,1.7-1,2.3c-0.1,0.5-0.1,0.9-0.1,0.9c0.1,0,0.1-1.2,1.4-3c0.6-0.8,1.6-1.8,2.9-2.4c1.3-0.7,3.1-1,4.9-0.7
				c1.9,0.3,3.8,1.2,5.4,2.8c1.6,1.5,2.8,3.7,3.4,6.1c0.3,1.2,0.4,2.5,0.6,3.8c0.2,1.3,0.6,2.8,1.7,3.8c1,1,2.4,1.7,3.8,2.1
				c1.4,0.4,2.8,0.6,4.2,0.9c1.4,0.3,2.8,0.8,3.9,1.6c1.1,0.8,1.9,1.9,2.5,3.1c1.1,2.4,1.1,5.2,0.2,7.5c-0.4,1.2-1,2.3-1.2,3.6
				c-0.2,1.2,0.1,2.6,0.8,3.5c1.4,1.9,3.6,2.7,5.1,3.7c1.6,1,2.6,2.5,3,3.9c0.5,1.4,0.5,2.8,0.3,3.8
				C255.4,68.3,254.5,69.2,254.5,69.2L254.5,69.2z"/>
		</g>
		<g>
			<g>
				<path class="st3" d="M237.2,56c-3,6.9-3.6,14.9-1.6,22.2c0.6,2.2,1.4,4.4,0.9,6.6c-0.6,2.4-2.6,4.1-4,6.1
					c-2.5,3.4-3.5,7.9-2.6,12c0.9,4.1,3.6,7.8,7.2,9.9c0.4-2.2,2.4-3.7,4.4-4.6s4.2-1.7,5.8-3.3c1.5-1.6,2-4.6,0.2-5.9
					c5.1-1.3,8-7.4,6.9-12.6c-1.1-5.2-5.3-9.3-10.1-11.5"/>
				<path class="st3" d="M242.7,107.7c-0.9,0.5-1.8,0.9-1.9,2c-0.1,1.2,1,3.4,1.5,4.5c0.8,2.2,0.2,5-1.5,6.6
					c-1.7,1.7-4.4,2.2-6.7,1.3c1.6,0.1,3-1.5,3.2-3.1s-0.6-3.2-1.6-4.5c-1-1.3-2.2-2.5-3-3.9c-1.7-2.9-4.2-10.8-2.3-15.2"/>
			</g>
			<path class="st4" d="M247.3,99.2c0,0,0.1-0.1,0.3-0.3c0.2-0.2,0.5-0.4,0.9-0.7c0.8-0.7,1.9-1.7,3-3.1c1.1-1.4,2.2-3.3,2.8-5.7
				c0.6-2.3,0.6-5.1-0.4-7.6c-0.5-1.3-1.2-2.4-2.1-3.4c-0.9-1-1.8-1.8-2.7-2.7c-0.9-0.8-1.7-1.6-2.4-2.5c-0.7-0.8-1.2-1.7-1.6-2.6
				c-0.8-1.7-0.8-3.3-0.5-4.3c0.1-0.5,0.3-0.9,0.4-1.1c0.1-0.2,0.2-0.3,0.2-0.3c0,0-0.3,0.5-0.6,1.5c-0.2,1-0.2,2.5,0.6,4.2
				c0.4,0.8,0.9,1.7,1.6,2.5s1.5,1.6,2.4,2.4c0.9,0.8,1.8,1.7,2.7,2.7c0.9,1,1.6,2.2,2.2,3.5c1,2.7,1,5.5,0.4,7.8
				c-0.6,2.4-1.8,4.3-2.9,5.7c-1.1,1.4-2.3,2.4-3.1,3.1c-0.4,0.3-0.7,0.6-0.9,0.7C247.4,99.2,247.3,99.2,247.3,99.2L247.3,99.2z"/>
		</g>
	</g>
</g>
<g>
	<path class="st8" d="M22.4,45.7v10.1H21v-8.9h-4.2v8.9h-1.4V45.7H22.4L22.4,45.7z"/>
	<path class="st8" d="M30.7,49c0.6,0.7,0.9,1.7,0.9,2.9c0,0.8-0.1,1.5-0.4,2.1s-0.7,1.1-1.2,1.4c-0.5,0.3-1.1,0.5-1.8,0.5
		c-1.1,0-1.9-0.4-2.5-1.1c-0.6-0.7-0.9-1.7-0.9-2.9c0-0.8,0.1-1.5,0.4-2.1s0.7-1.1,1.2-1.4c0.5-0.3,1.1-0.5,1.9-0.5
		C29.3,47.9,30.1,48.2,30.7,49L30.7,49z M26.2,51.9c0,2,0.7,2.9,2,2.9s2-1,2-3s-0.7-2.9-2-2.9S26.2,50,26.2,51.9L26.2,51.9z"/>
	<path class="st8" d="M39.9,54.7V58h-1.1l-0.2-2.2h-4.9L33.4,58h-1.1v-3.3h0.5c0.2-0.2,0.4-0.3,0.6-0.5c0.1-0.2,0.3-0.5,0.4-1
		s0.2-1.2,0.3-2.2l0.2-2.9H39v6.6L39.9,54.7L39.9,54.7z M37.7,49.1h-2.3l-0.1,1.6c-0.1,0.9-0.1,1.6-0.2,2.1
		c-0.1,0.5-0.2,0.9-0.4,1.1c-0.2,0.3-0.4,0.5-0.7,0.7h3.7L37.7,49.1L37.7,49.1z"/>
	<path class="st8" d="M46.3,55.8v-6.6h-3.2v6.6h-1.3v-7.7h5.9v7.7H46.3z"/>
	<path class="st8" d="M56.5,55.8h-1.3v-3.5c0-0.6,0-1.1,0.1-1.7s0.1-0.9,0.1-1l-3.2,6.2h-1.6v-7.7h1.3v3.5c0,0.5,0,1-0.1,1.6
		s-0.1,0.9-0.1,1.1l3.2-6.2h1.6L56.5,55.8L56.5,55.8z"/>
	<path class="st8" d="M68.1,48.1v7.7h-8.9v-7.7h1.3v6.6h2.5v-6.6h1.3v6.6h2.5v-6.6C66.8,48.1,68.1,48.1,68.1,48.1z"/>
	<path class="st8" d="M76.9,55.8h-1.3v-3.5c0-0.6,0-1.1,0.1-1.7c0-0.5,0.1-0.9,0.1-1l-3.2,6.2h-1.6v-7.7h1.3v3.5c0,0.5,0,1-0.1,1.6
		c0,0.5-0.1,0.9-0.1,1.1l3.2-6.2h1.6L76.9,55.8L76.9,55.8z"/>
	<path class="st8" d="M84.9,48.1l-0.2,1.1h-2.5v6.6h-1.3v-6.6h-2.5v-1.1H84.9z"/>
	<path class="st8" d="M91.7,52.4h-4.9c0.1,0.8,0.3,1.5,0.6,1.9c0.4,0.4,0.8,0.6,1.4,0.6c0.4,0,0.7,0,1-0.2s0.6-0.3,1-0.5l0.6,0.8
		c-0.8,0.6-1.7,1-2.7,1c-1.1,0-1.9-0.3-2.5-1s-0.9-1.7-0.9-2.9c0-0.8,0.1-1.5,0.4-2.1c0.3-0.6,0.6-1.1,1.1-1.5s1.1-0.5,1.7-0.5
		c1,0,1.8,0.3,2.4,1s0.8,1.6,0.8,2.8C91.8,51.9,91.8,52.2,91.7,52.4L91.7,52.4z M90.4,51.3c0-0.8-0.2-1.3-0.4-1.7
		c-0.3-0.4-0.8-0.6-1.4-0.6c-1.1,0-1.7,0.8-1.8,2.4L90.4,51.3L90.4,51.3L90.4,51.3z"/>
	<path class="st8" d="M98,48.1c0.4,0.1,0.8,0.3,1.1,0.6l-0.6,0.8c-0.3-0.2-0.5-0.3-0.8-0.4S97.1,49,96.8,49c-0.6,0-1.1,0.2-1.5,0.8
		S94.8,51,94.8,52s0.2,1.7,0.5,2.2c0.3,0.5,0.8,0.7,1.5,0.7c0.3,0,0.6,0,0.8-0.1s0.5-0.2,0.8-0.5l0.6,0.9c-0.7,0.6-1.5,0.8-2.4,0.8
		c-1,0-1.9-0.3-2.5-1s-0.9-1.7-0.9-2.9c0-0.8,0.1-1.5,0.4-2.2c0.3-0.6,0.7-1.1,1.2-1.4s1.1-0.5,1.8-0.5C97.2,47.9,97.6,48,98,48.1
		L98,48.1z"/>
	<path class="st8" d="M105.8,51.2c0.5,0.5,0.8,1.1,0.8,1.9s-0.3,1.5-0.9,2c-0.6,0.4-1.3,0.7-2.2,0.7h-2.6v-7.7h1.3v2.5h1
		C104.4,50.6,105.3,50.8,105.8,51.2L105.8,51.2z M104.7,54.4c0.3-0.2,0.4-0.7,0.4-1.2c0-0.5-0.1-0.9-0.4-1.2
		c-0.3-0.2-0.8-0.4-1.4-0.4h-1v3.2h1.2C104,54.7,104.4,54.6,104.7,54.4L104.7,54.4z"/>
	<path class="st8" d="M116.9,55.8v-3.4h-3.2v3.4h-1.3v-7.7h1.3v3.2h3.2v-3.2h1.3v7.7H116.9z"/>
	<path class="st8" d="M126.4,54.7c0.1,0.2,0.3,0.3,0.5,0.3l-0.3,0.9c-0.4,0-0.7-0.2-1-0.3c-0.2-0.2-0.4-0.5-0.5-0.8
		c-0.5,0.8-1.3,1.2-2.3,1.2c-0.8,0-1.4-0.2-1.8-0.6s-0.7-1-0.7-1.7c0-0.8,0.3-1.5,0.9-1.9s1.4-0.7,2.5-0.7h1.2v-0.6
		c0-0.5-0.1-0.9-0.4-1.2c-0.3-0.2-0.7-0.3-1.2-0.3s-1.3,0.1-2.1,0.4l-0.3-1c1-0.3,1.8-0.5,2.7-0.5c0.9,0,1.6,0.2,2,0.7
		c0.4,0.4,0.7,1.1,0.7,1.9V54C126.2,54.3,126.3,54.5,126.4,54.7L126.4,54.7z M124.9,53.7V52h-1c-1.4,0-2.1,0.5-2.1,1.6
		c0,0.5,0.1,0.8,0.3,1c0.2,0.2,0.6,0.3,1,0.3C123.8,54.9,124.4,54.5,124.9,53.7L124.9,53.7z"/>
	<path class="st8" d="M137.4,55.8v-3.4h-3.2v3.4h-1.4v-7.7h1.4v3.2h3.2v-3.2h1.4v7.7H137.4z"/>
	<path class="st8" d="M146.9,54.7c0.1,0.2,0.3,0.3,0.5,0.3l-0.3,0.9c-0.4,0-0.7-0.2-1-0.3c-0.2-0.2-0.4-0.5-0.5-0.8
		c-0.5,0.8-1.3,1.2-2.3,1.2c-0.8,0-1.4-0.2-1.8-0.6s-0.7-1-0.7-1.7c0-0.8,0.3-1.5,0.9-1.9s1.4-0.7,2.5-0.7h1.2v-0.6
		c0-0.5-0.1-0.9-0.4-1.2c-0.3-0.2-0.7-0.3-1.2-0.3s-1.3,0.1-2.1,0.4l-0.3-1c1-0.3,1.8-0.5,2.7-0.5c0.9,0,1.6,0.2,2,0.7
		c0.4,0.4,0.7,1.1,0.7,1.9V54C146.7,54.3,146.8,54.5,146.9,54.7L146.9,54.7z M145.4,53.7V52h-1c-1.4,0-2.1,0.5-2.1,1.6
		c0,0.5,0.1,0.8,0.3,1c0.2,0.2,0.6,0.3,1,0.3C144.4,54.9,145,54.5,145.4,53.7L145.4,53.7z"/>
	<path class="st8" d="M158.4,48.1v7.7h-8.9v-7.7h1.3v6.6h2.5v-6.6h1.3v6.6h2.5v-6.6H158.4L158.4,48.1z"/>
	<path class="st8" d="M164.3,55.8c-0.3,0.9-0.7,1.6-1.3,2.1c-0.5,0.5-1.3,0.8-2.3,0.9l-0.1-1c0.5-0.1,0.9-0.2,1.2-0.4
		c0.3-0.2,0.5-0.4,0.7-0.6c0.2-0.3,0.4-0.6,0.5-1h-0.4l-2.6-7.7h1.4l2.1,6.7l2-6.7h1.4L164.3,55.8L164.3,55.8z"/>
	<path class="st8" d="M21.1,65.7c0.5,0.7,0.7,1.7,0.7,3c0,1.2-0.3,2.2-0.8,2.9c-0.5,0.7-1.3,1.1-2.2,1.1c-0.9,0-1.5-0.3-2-0.9v3.7
		l-1.4,0.2V64.9h1.2l0.1,1c0.3-0.4,0.6-0.7,1-0.9c0.4-0.2,0.8-0.3,1.3-0.3C19.9,64.7,20.6,65,21.1,65.7L21.1,65.7z M20.3,68.7
		c0-2-0.6-3-1.7-3c-0.4,0-0.7,0.1-1,0.3c-0.3,0.2-0.6,0.5-0.8,0.9v3.8c0.2,0.3,0.4,0.5,0.7,0.7c0.3,0.2,0.6,0.2,1,0.2
		C19.7,71.6,20.3,70.7,20.3,68.7z"/>
	<path class="st8" d="M29.3,71.5c0.1,0.2,0.3,0.3,0.5,0.3l-0.3,0.9c-0.4-0.1-0.7-0.2-1-0.3c-0.2-0.2-0.4-0.4-0.5-0.8
		c-0.5,0.8-1.3,1.2-2.3,1.2c-0.8,0-1.4-0.2-1.8-0.6c-0.4-0.4-0.7-1-0.7-1.7c0-0.8,0.3-1.4,0.9-1.9s1.4-0.7,2.5-0.7h1.2v-0.6
		c0-0.6-0.1-0.9-0.4-1.2c-0.3-0.2-0.7-0.3-1.2-0.3c-0.6,0-1.3,0.1-2.1,0.4l-0.3-1c1-0.3,1.8-0.5,2.7-0.5c0.9,0,1.6,0.2,2,0.7
		c0.5,0.4,0.7,1.1,0.7,1.9v3.5C29.1,71.1,29.2,71.3,29.3,71.5L29.3,71.5z M27.8,70.5v-1.8h-1c-1.4,0-2.1,0.5-2.1,1.6
		c0,0.5,0.1,0.8,0.3,1c0.2,0.2,0.6,0.3,1,0.3C26.7,71.7,27.4,71.3,27.8,70.5L27.8,70.5z"/>
	<path class="st8" d="M36,64.9c0.4,0.1,0.8,0.3,1.1,0.6l-0.6,0.8c-0.3-0.2-0.5-0.3-0.8-0.4c-0.3-0.1-0.5-0.1-0.9-0.1
		c-0.6,0-1.1,0.2-1.5,0.8s-0.5,1.2-0.5,2.2s0.2,1.7,0.5,2.2c0.3,0.5,0.8,0.7,1.5,0.7c0.3,0,0.6-0.1,0.8-0.1s0.5-0.2,0.9-0.4l0.6,0.9
		c-0.7,0.6-1.5,0.8-2.4,0.8c-1,0-1.9-0.3-2.5-1.1c-0.6-0.7-0.9-1.7-0.9-2.9c0-0.8,0.1-1.5,0.4-2.2s0.7-1.1,1.2-1.4
		c0.5-0.3,1.1-0.5,1.8-0.5C35.1,64.7,35.6,64.8,36,64.9L36,64.9z"/>
	<path class="st8" d="M42.7,64.9c0.4,0.1,0.8,0.3,1.1,0.6l-0.6,0.8c-0.3-0.2-0.5-0.3-0.8-0.4c-0.3-0.1-0.5-0.1-0.9-0.1
		c-0.6,0-1.1,0.2-1.5,0.8s-0.5,1.2-0.5,2.2s0.2,1.7,0.5,2.2c0.3,0.5,0.8,0.7,1.5,0.7c0.3,0,0.6-0.1,0.8-0.1s0.5-0.2,0.9-0.4l0.6,0.9
		c-0.7,0.6-1.5,0.8-2.4,0.8c-1,0-1.9-0.3-2.5-1.1S38,70,38,68.8c0-0.8,0.1-1.5,0.4-2.2s0.7-1.1,1.2-1.4c0.5-0.3,1.1-0.5,1.8-0.5
		C41.8,64.7,42.3,64.8,42.7,64.9L42.7,64.9z"/>
	<path class="st8" d="M50.3,68c0.5,0.4,0.8,1.1,0.8,1.9s-0.3,1.5-0.9,2c-0.6,0.4-1.3,0.7-2.2,0.7h-2.5v-7.7H47v2.5h0.9
		C49,67.3,49.8,67.6,50.3,68L50.3,68z M49.2,71.1c0.3-0.2,0.5-0.7,0.5-1.2c0-0.5-0.1-0.9-0.4-1.2c-0.3-0.2-0.8-0.4-1.4-0.4H47v3.2h1
		C48.5,71.5,48.9,71.4,49.2,71.1L49.2,71.1z M52.2,64.8h1.3v7.7h-1.3V64.8z"/>
	<path class="st8" d="M62,64.9v7.7h-1.3V66h-2.4L58,68.5c-0.1,1-0.2,1.8-0.3,2.3c-0.1,0.5-0.3,0.9-0.6,1.2s-0.7,0.5-1.3,0.7
		l-0.3-1.1c0.3-0.1,0.6-0.3,0.7-0.4c0.1-0.2,0.2-0.5,0.3-0.8s0.1-1,0.2-2l0.3-3.5L62,64.9L62,64.9z"/>
	<path class="st8" d="M70.6,64.9l-2.3,3.6l2.6,4.1h-1.6L67.1,69h-1v3.6h-1.3v-7.7h1.3v3.1h1l1.9-3.1L70.6,64.9L70.6,64.9z"/>
	<path class="st8" d="M75.5,72.6c-0.3,0.9-0.7,1.6-1.3,2.1c-0.5,0.5-1.3,0.8-2.3,0.9l-0.2-1.1c0.5-0.1,0.9-0.2,1.2-0.4
		c0.3-0.2,0.5-0.4,0.7-0.6s0.3-0.6,0.5-1.1h-0.4l-2.6-7.7h1.4l2.1,6.7l2-6.7H78L75.5,72.6L75.5,72.6z"/>
	<path class="st8" d="M89.5,72.6h-1.3v-3.5c0-0.6,0-1.1,0.1-1.7s0.1-0.9,0.1-1l-3.2,6.2h-1.6v-7.7h1.3v3.5c0,0.5,0,1.1-0.1,1.6
		c0,0.6-0.1,0.9-0.1,1.1l3.2-6.2h1.6L89.5,72.6L89.5,72.6z"/>
	<path class="st8" d="M100.6,72.6v-6.6h-3.2v6.6h-1.3v-7.7h5.9v7.7H100.6z"/>
	<path class="st8" d="M110.2,65.8c0.6,0.7,0.9,1.7,0.9,2.9c0,0.8-0.1,1.5-0.4,2.1c-0.3,0.6-0.7,1.1-1.2,1.4
		c-0.5,0.3-1.1,0.5-1.8,0.5c-1.1,0-1.9-0.4-2.5-1.1c-0.6-0.7-0.9-1.7-0.9-2.9c0-0.8,0.1-1.5,0.4-2.1c0.3-0.6,0.7-1.1,1.2-1.4
		c0.5-0.3,1.1-0.5,1.9-0.5C108.7,64.7,109.6,65,110.2,65.8L110.2,65.8z M105.7,68.7c0,2,0.7,2.9,2,2.9s2-1,2-3s-0.7-2.9-2-2.9
		S105.6,66.8,105.7,68.7L105.7,68.7z"/>
	<path class="st8" d="M118.8,64.9v7.7h-1.3V66h-2.4l-0.2,2.6c-0.1,1-0.2,1.8-0.3,2.3c-0.1,0.5-0.3,0.9-0.6,1.2s-0.7,0.5-1.3,0.7
		l-0.3-1.1c0.3-0.1,0.6-0.3,0.7-0.4c0.1-0.2,0.2-0.5,0.3-0.8s0.1-1,0.2-2l0.3-3.5L118.8,64.9L118.8,64.9z"/>
	<path class="st8" d="M124.7,72.6c-0.3,0.9-0.7,1.6-1.3,2.1c-0.5,0.5-1.3,0.8-2.3,0.9l-0.2-1.1c0.5-0.1,0.9-0.2,1.2-0.4
		c0.3-0.2,0.5-0.4,0.7-0.6s0.3-0.6,0.5-1.1h-0.4l-2.6-7.7h1.4l2.1,6.7l2-6.7h1.4L124.7,72.6L124.7,72.6z"/>
	<path class="st8" d="M134.1,64.9v7.7h-1.3v-3.2c-0.3,0.3-0.6,0.5-1.1,0.6c-0.4,0.2-0.8,0.2-1.3,0.2c-0.7,0-1.3-0.2-1.6-0.6
		c-0.4-0.4-0.6-1-0.6-1.7v-3.1h1.4v2.9c0,0.5,0.1,0.8,0.3,1.1c0.2,0.2,0.5,0.3,0.9,0.3c0.3,0,0.7-0.1,1.1-0.2
		c0.4-0.2,0.7-0.4,0.9-0.6v-3.5L134.1,64.9L134.1,64.9z"/>
	<path class="st8" d="M142.9,72.6h-1.3v-3.5c0-0.6,0-1.1,0.1-1.7s0.1-0.9,0.1-1l-3.2,6.2h-1.6v-7.7h1.3v3.5c0,0.5,0,1.1-0.1,1.6
		c0,0.6-0.1,0.9-0.1,1.1l3.2-6.2h1.6L142.9,72.6L142.9,72.6z"/>
	<path class="st8" d="M150.9,64.9l-0.2,1.1h-2.5v6.6h-1.4V66h-2.6v-1.1H150.9L150.9,64.9z"/>
	<path class="st8" d="M157.7,69.2h-4.9c0.1,0.8,0.3,1.5,0.6,1.9s0.9,0.6,1.4,0.6c0.4,0,0.7-0.1,1-0.2s0.6-0.3,1-0.5l0.6,0.8
		c-0.8,0.6-1.7,1-2.7,1c-1.1,0-1.9-0.3-2.5-1.1s-0.9-1.7-0.9-2.9c0-0.8,0.1-1.5,0.4-2.1c0.3-0.6,0.6-1.1,1.1-1.5s1.1-0.5,1.7-0.5
		c1,0,1.8,0.3,2.4,1c0.6,0.7,0.8,1.6,0.8,2.8C157.7,68.7,157.7,68.9,157.7,69.2L157.7,69.2z M156.4,68.1c0-0.8-0.1-1.3-0.4-1.7
		s-0.8-0.6-1.4-0.6c-1.1,0-1.7,0.8-1.8,2.4L156.4,68.1L156.4,68.1L156.4,68.1z"/>
	<path class="st5" d="M19.4,89.4v-6.2h-2.3v6.2H15v-7.8h6.5v7.8H19.4L19.4,89.4z"/>
	<path class="st5" d="M29.6,82.5c0.6,0.7,1,1.7,1,3c0,0.8-0.1,1.5-0.5,2.2c-0.3,0.6-0.7,1.1-1.3,1.4c-0.6,0.3-1.2,0.5-2,0.5
		c-1.2,0-2.1-0.4-2.7-1.1c-0.7-0.7-1-1.7-1-3c0-0.8,0.1-1.5,0.5-2.2c0.3-0.6,0.7-1.1,1.3-1.4c0.6-0.3,1.2-0.5,2-0.5
		C28,81.4,28.9,81.7,29.6,82.5z M25.7,83.5c-0.3,0.4-0.4,1.1-0.4,1.9s0.1,1.5,0.4,1.9c0.3,0.4,0.6,0.6,1.2,0.6s0.9-0.2,1.2-0.6
		s0.4-1.1,0.4-1.9S28.2,84,28,83.5c-0.2-0.4-0.6-0.6-1.2-0.6S25.9,83.1,25.7,83.5L25.7,83.5z"/>
	<path class="st5" d="M36.8,81.6c0.4,0.2,0.8,0.4,1.2,0.7L37,83.5c-0.2-0.2-0.5-0.3-0.7-0.4C36,83,35.8,83,35.5,83
		c-1.1,0-1.6,0.8-1.6,2.6c0,0.9,0.1,1.5,0.4,1.8c0.3,0.4,0.7,0.6,1.2,0.6c0.3,0,0.5,0,0.8-0.1c0.2-0.1,0.5-0.2,0.8-0.4l0.9,1.3
		c-0.7,0.6-1.6,0.9-2.5,0.9c-0.8,0-1.4-0.2-2-0.5s-1-0.8-1.3-1.4c-0.3-0.6-0.5-1.3-0.5-2.1s0.1-1.5,0.5-2.2c0.3-0.6,0.7-1.1,1.3-1.5
		c0.6-0.3,1.2-0.5,2-0.5C35.9,81.4,36.3,81.5,36.8,81.6L36.8,81.6z"/>
	<path class="st5" d="M45,81.6l-0.3,1.6h-2.2v6.2h-2.1v-6.2h-2.3v-1.6C38.1,81.6,45,81.6,45,81.6z"/>
	<path class="st5" d="M51.6,82.5c0.7,0.7,1,1.7,1,3c0,0.8-0.2,1.5-0.5,2.2s-0.7,1.1-1.3,1.4c-0.6,0.3-1.2,0.5-2,0.5
		c-1.2,0-2.1-0.4-2.7-1.1c-0.7-0.7-1-1.7-1-3c0-0.8,0.2-1.5,0.5-2.2c0.3-0.6,0.7-1.1,1.3-1.4c0.6-0.3,1.2-0.5,2-0.5
		C50,81.4,50.9,81.7,51.6,82.5z M47.7,83.5c-0.3,0.4-0.4,1.1-0.4,1.9s0.1,1.5,0.4,1.9c0.3,0.4,0.7,0.6,1.2,0.6s0.9-0.2,1.2-0.6
		s0.4-1.1,0.4-1.9S50.3,84,50,83.5c-0.2-0.4-0.6-0.6-1.2-0.6S47.9,83.1,47.7,83.5L47.7,83.5z"/>
	<path class="st5" d="M60.1,81.6v7.8H58v-2.8h-1.1l-1.5,2.8h-2.2l1.8-3.2c-0.8-0.4-1.2-1.1-1.2-2c0-0.8,0.3-1.4,0.9-1.9
		c0.6-0.4,1.5-0.6,2.6-0.6L60.1,81.6L60.1,81.6z M58,85.3V83h-0.8c-0.9,0-1.3,0.4-1.3,1.1c0,0.8,0.4,1.2,1.3,1.2L58,85.3L58,85.3z"
		/>
	<path class="st5" d="M66.6,89.4v-3.2h-2.4v3.2h-2.1v-7.8h2.1v3h2.4v-3h2.1v7.8H66.6z"/>
	<path class="st5" d="M75.2,89.4v-3.2h-2.4v3.2h-2.1v-7.8h2.1v3h2.4v-3h2.1v7.8C77.3,89.4,75.2,89.4,75.2,89.4z"/>
	<path class="st5" d="M83.3,89.4c-0.3,1-0.8,1.8-1.5,2.3c-0.7,0.5-1.6,0.8-2.7,0.9l-0.2-1.5c0.7-0.1,1.3-0.3,1.6-0.5
		c0.3-0.2,0.6-0.7,0.9-1.2h-0.7l-2.4-7.8h2.2L82,88l1.6-6.4h2.2L83.3,89.4L83.3,89.4z"/>
	<path class="st5" d="M95.3,81.9c0.5,0.3,0.9,0.8,1.2,1.4c0.3,0.6,0.4,1.3,0.4,2.2c0,0.8-0.1,1.5-0.4,2.1c-0.3,0.6-0.7,1.1-1.2,1.5
		s-1.2,0.5-1.9,0.5c-1,0-1.8-0.3-2.4-0.9c-0.6-0.6-1-1.4-1.1-2.5h-1.1v3.2h-2.1v-7.8h2.1v3.1H90c0.2-1,0.5-1.8,1.1-2.4
		c0.6-0.6,1.4-0.9,2.3-0.9C94.2,81.4,94.8,81.5,95.3,81.9L95.3,81.9z M94.5,87.4c0.2-0.4,0.3-1.1,0.3-1.9c0-1.7-0.5-2.6-1.4-2.6
		c-0.5,0-0.8,0.2-1.1,0.6s-0.3,1.1-0.3,1.9s0.1,1.5,0.3,1.9c0.2,0.4,0.6,0.6,1,0.6C94,88,94.3,87.8,94.5,87.4L94.5,87.4z"/>
	<path class="st5" d="M106.8,81.6c0.4,0.2,0.8,0.4,1.2,0.7l-0.9,1.2c-0.2-0.2-0.5-0.3-0.7-0.4c-0.2-0.1-0.5-0.1-0.8-0.1
		c-1.1,0-1.7,0.8-1.7,2.6c0,0.9,0.1,1.5,0.4,1.8c0.3,0.4,0.7,0.6,1.2,0.6c0.3,0,0.5,0,0.8-0.1c0.2-0.1,0.5-0.2,0.8-0.4l0.9,1.3
		c-0.7,0.6-1.6,0.9-2.6,0.9c-0.8,0-1.4-0.2-2-0.5c-0.6-0.3-1-0.8-1.3-1.4c-0.3-0.6-0.4-1.3-0.4-2.1s0.2-1.5,0.4-2.2
		c0.3-0.6,0.7-1.1,1.3-1.5c0.6-0.3,1.2-0.5,1.9-0.5C105.9,81.4,106.4,81.5,106.8,81.6L106.8,81.6z"/>
	<path class="st5" d="M115.8,81.6l-2.1,3.6l2.3,4.2h-2.2L112,86h-0.8v3.4h-2.1v-7.8h2.1v3.1h0.8l1.7-3.1L115.8,81.6L115.8,81.6z"/>
	<path class="st5" d="M123.7,89.4h-2v-2.9c0-0.6,0-1.1,0.1-1.6s0.1-0.9,0.2-1.2l-2.8,5.7h-2.2v-7.8h2v3c0,0.5,0,1.1-0.1,1.6
		s-0.1,0.9-0.2,1.2l2.7-5.7h2.2L123.7,89.4L123.7,89.4z"/>
	<path class="st5" d="M132.6,87.8v3.9h-1.5l-0.2-2.4h-4.4l-0.2,2.4h-1.5v-3.9h0.5c0.2-0.1,0.3-0.3,0.5-0.5s0.2-0.5,0.3-1
		s0.2-1.1,0.2-2l0.2-2.7h5.3v6.2H132.6L132.6,87.8z M129.8,83h-1.6l-0.1,1.1c-0.1,0.8-0.2,1.5-0.3,1.9c-0.1,0.5-0.2,0.8-0.4,1.1
		c-0.2,0.3-0.4,0.5-0.7,0.7h3L129.8,83L129.8,83z"/>
	<path class="st5" d="M140.6,81.6l-2.1,3.6l2.3,4.2h-2.2l-1.8-3.4H136v3.4h-2.1v-7.8h2.1v3.1h0.8l1.7-3.1L140.6,81.6L140.6,81.6z"/>
	<path class="st5" d="M145.8,89.4c-0.3,1-0.8,1.8-1.5,2.3c-0.7,0.5-1.6,0.8-2.7,0.9l-0.2-1.5c0.7-0.1,1.3-0.3,1.6-0.5
		c0.4-0.2,0.6-0.7,0.9-1.2h-0.7l-2.4-7.8h2.2l1.6,6.4l1.6-6.4h2.1L145.8,89.4L145.8,89.4z"/>
	<path class="st5" d="M157.2,79.5v9.9h-2v-7.8l-2.2,1.3l-0.9-1.4l3.3-2L157.2,79.5L157.2,79.5z"/>
	<path class="st5" d="M165.1,81h-3.6v2.3c0.5-0.2,1-0.3,1.5-0.3c0.6,0,1,0.1,1.5,0.4c0.4,0.2,0.8,0.6,1,1.1c0.2,0.5,0.4,1.1,0.4,1.7
		s-0.2,1.3-0.5,1.8s-0.8,0.9-1.3,1.2c-0.6,0.3-1.2,0.4-2,0.4c-1.3,0-2.3-0.5-3.2-1.4l1.2-1.1c0.6,0.6,1.2,0.9,2,0.9
		c0.5,0,0.9-0.2,1.2-0.5s0.4-0.8,0.4-1.4c0-1.2-0.5-1.7-1.5-1.7c-0.2,0-0.4,0-0.6,0.1s-0.4,0.1-0.6,0.3h-1.4v-5.2h5.9L165.1,81
		L165.1,81z"/>
	<path class="st5" d="M170.3,79.6c0.4,0.2,0.7,0.5,0.9,0.9s0.3,0.8,0.3,1.4s-0.1,1-0.3,1.4s-0.5,0.7-0.9,0.9
		c-0.4,0.2-0.8,0.3-1.3,0.3s-0.9-0.1-1.3-0.3s-0.7-0.5-0.9-0.9s-0.3-0.8-0.3-1.4s0.1-1,0.3-1.4s0.5-0.7,0.9-0.9
		c0.4-0.2,0.8-0.3,1.3-0.3S169.9,79.4,170.3,79.6z M168,81.9c0,0.4,0.1,0.7,0.2,0.9c0.1,0.2,0.4,0.4,0.8,0.4c0.7,0,1-0.4,1-1.3
		s-0.3-1.3-1-1.3S168,81,168,81.9L168,81.9z M174.9,78.8l1.3,0.8l-6.8,10.2l-1.3-0.8L174.9,78.8L174.9,78.8z M176.7,84.7
		c0.4,0.2,0.7,0.5,0.9,0.9s0.3,0.8,0.3,1.4s-0.1,1-0.3,1.4s-0.5,0.7-0.9,0.9c-0.4,0.2-0.8,0.3-1.3,0.3s-0.9-0.1-1.3-0.3
		s-0.7-0.5-0.9-0.9c-0.2-0.4-0.3-0.8-0.3-1.4s0.1-1,0.3-1.4c0.2-0.4,0.5-0.7,0.9-0.9c0.4-0.2,0.8-0.3,1.3-0.3S176.3,84.5,176.7,84.7
		z M174.4,87c0,0.4,0.1,0.7,0.2,0.9c0.1,0.2,0.4,0.4,0.8,0.4c0.7,0,1-0.4,1-1.3s-0.3-1.3-1-1.3S174.4,86.1,174.4,87L174.4,87z"/>
	<path class="st8" d="M19.9,106.2v-3.4h-3.2v3.4h-1.3v-7.7h1.4v3.2h3.2v-3.2h1.4v7.7H19.9L19.9,106.2z"/>
	<path class="st8" d="M29.4,105.1c0.1,0.2,0.3,0.3,0.5,0.3l-0.3,0.9c-0.4-0.1-0.7-0.2-1-0.3c-0.2-0.2-0.4-0.4-0.5-0.8
		c-0.5,0.8-1.3,1.2-2.3,1.2c-0.8,0-1.4-0.2-1.8-0.6c-0.4-0.4-0.7-1-0.7-1.7c0-0.8,0.3-1.4,0.9-1.9s1.4-0.7,2.5-0.7h1.2v-0.6
		c0-0.6-0.1-0.9-0.4-1.2c-0.3-0.2-0.7-0.3-1.2-0.3c-0.5,0-1.3,0.1-2.1,0.4l-0.3-1c1-0.3,1.8-0.5,2.7-0.5c0.9,0,1.6,0.2,2,0.7
		c0.4,0.4,0.7,1.1,0.7,1.9v3.5C29.2,104.7,29.3,104.9,29.4,105.1L29.4,105.1z M27.9,104.1v-1.8h-1c-1.4,0-2.1,0.5-2.1,1.6
		c0,0.5,0.1,0.8,0.3,1c0.2,0.2,0.6,0.3,1,0.3C26.9,105.3,27.5,104.9,27.9,104.1L27.9,104.1z"/>
	<path class="st8" d="M41.7,98.4l-2.3,3.6l2.6,4.1h-1.6l-2.1-3.6h-1v3.6h-1.3v-7.7h1.3v3.1h1l2-3.1L41.7,98.4L41.7,98.4z"/>
	<path class="st8" d="M48.8,99.3c0.6,0.7,0.9,1.7,0.9,2.9c0,0.8-0.1,1.5-0.4,2.1s-0.7,1.1-1.2,1.4s-1.1,0.5-1.8,0.5
		c-1.1,0-1.9-0.4-2.5-1.1c-0.6-0.7-0.9-1.7-0.9-2.9c0-0.8,0.1-1.5,0.4-2.1c0.3-0.6,0.7-1.1,1.2-1.4s1.1-0.5,1.9-0.5
		C47.4,98.3,48.2,98.6,48.8,99.3L48.8,99.3z M44.3,102.3c0,2,0.7,2.9,2,2.9s2-1,2-3s-0.7-2.9-2-2.9S44.3,100.3,44.3,102.3
		L44.3,102.3z"/>
	<path class="st8" d="M56.5,106.2v-3.4h-3.2v3.4h-1.3v-7.7h1.3v3.2h3.2v-3.2h1.3v7.7H56.5z"/>
	<path class="st8" d="M66.4,105.1h1.2v3.3h-1.1l-0.2-2.2h-5.6v-7.7H62v6.6H65v-6.6h1.3V105.1L66.4,105.1z"/>
	<path class="st8" d="M74.8,102.8h-4.9c0.1,0.8,0.3,1.5,0.6,1.9s0.8,0.6,1.4,0.6c0.4,0,0.7-0.1,1-0.2c0.3-0.1,0.6-0.3,1-0.5l0.6,0.8
		c-0.8,0.6-1.7,1-2.7,1c-1.1,0-1.9-0.3-2.5-1.1c-0.6-0.7-0.9-1.7-0.9-2.9c0-0.8,0.1-1.5,0.4-2.1c0.3-0.6,0.6-1.1,1.1-1.5
		c0.5-0.3,1-0.5,1.7-0.5c1,0,1.8,0.3,2.4,1c0.6,0.7,0.8,1.6,0.8,2.8C74.9,102.3,74.9,102.5,74.8,102.8L74.8,102.8z M73.5,101.7
		c0-0.8-0.2-1.3-0.4-1.7c-0.3-0.4-0.8-0.6-1.4-0.6c-1.1,0-1.7,0.8-1.8,2.4L73.5,101.7L73.5,101.7L73.5,101.7z"/>
	<path class="st8" d="M82.7,99.3c0.5,0.7,0.7,1.7,0.7,3c0,1.2-0.3,2.2-0.8,2.9s-1.3,1.1-2.2,1.1c-0.9,0-1.5-0.3-2-0.9v3.7l-1.4,0.2
		V98.4h1.2l0.1,1c0.3-0.4,0.6-0.7,1-0.9c0.4-0.2,0.8-0.3,1.3-0.3C81.5,98.3,82.3,98.6,82.7,99.3L82.7,99.3z M82,102.3
		c0-2-0.6-3-1.7-3c-0.4,0-0.7,0.1-1,0.3c-0.3,0.2-0.6,0.5-0.8,0.9v3.8c0.2,0.3,0.4,0.5,0.7,0.7c0.3,0.2,0.6,0.2,1,0.2
		C81.3,105.2,82,104.2,82,102.3z"/>
	<path class="st8" d="M90.5,98.4l-0.2,1.1h-2.5v6.6h-1.3v-6.6H84v-1.1C84,98.4,90.5,98.4,90.5,98.4z"/>
	<path class="st8" d="M96.7,101.6c0.5,0.4,0.8,1.1,0.8,1.9s-0.3,1.5-0.9,2s-1.3,0.7-2.2,0.7h-2.5v-7.7h1.3v2.5h0.9
		C95.3,100.9,96.2,101.2,96.7,101.6L96.7,101.6z M95.6,104.7c0.3-0.2,0.4-0.7,0.4-1.2c0-0.5-0.1-0.9-0.4-1.2
		c-0.3-0.2-0.8-0.4-1.4-0.4h-0.9v3.2h1C94.8,105.1,95.3,105,95.6,104.7L95.6,104.7z M98.5,98.4h1.3v7.7h-1.3V98.4z"/>
	<path class="st8" d="M112.6,106.2h-1.3v-3.5c0-0.6,0-1.1,0.1-1.7s0.1-0.9,0.1-1l-3.2,6.2h-1.6v-7.7h1.3v3.5c0,0.5,0,1.1-0.1,1.6
		c0,0.6-0.1,0.9-0.1,1.1l3.2-6.2h1.6L112.6,106.2L112.6,106.2z"/>
	<path class="st8" d="M118.6,98.5c0.4,0.2,0.8,0.4,1,0.7c0.3,0.3,0.4,0.7,0.4,1.1s-0.1,0.8-0.4,1.1c-0.2,0.3-0.6,0.5-1.2,0.6
		c0.6,0.1,1.1,0.3,1.5,0.6s0.5,0.7,0.5,1.3c0,0.8-0.3,1.4-0.9,1.8c-0.6,0.4-1.4,0.6-2.4,0.6c-1.2,0-2.2-0.3-3-1l0.7-0.8
		c0.3,0.2,0.7,0.4,1,0.5c0.3,0.1,0.7,0.2,1.2,0.2c1.3,0,1.9-0.5,1.9-1.4c0-0.4-0.2-0.8-0.5-0.9c-0.4-0.2-0.8-0.3-1.5-0.3h-1l0.1-1.1
		h0.8c0.6,0,1-0.1,1.3-0.3c0.3-0.2,0.5-0.5,0.5-0.9c0-0.4-0.1-0.7-0.4-0.8s-0.7-0.3-1.1-0.3c-0.4,0-0.8,0.1-1.1,0.2
		s-0.6,0.3-0.9,0.5l-0.6-0.8c0.4-0.3,0.8-0.5,1.3-0.7s1-0.2,1.5-0.2C117.8,98.3,118.2,98.3,118.6,98.5L118.6,98.5z"/>
	<path class="st8" d="M131.9,105.1c0.1,0.2,0.3,0.3,0.5,0.3l-0.3,0.9c-0.4-0.1-0.7-0.2-1-0.3c-0.2-0.2-0.4-0.4-0.5-0.8
		c-0.5,0.8-1.3,1.2-2.3,1.2c-0.8,0-1.4-0.2-1.8-0.6s-0.7-1-0.7-1.7c0-0.8,0.3-1.4,0.9-1.9s1.4-0.7,2.5-0.7h1.2v-0.6
		c0-0.6-0.1-0.9-0.4-1.2c-0.3-0.2-0.7-0.3-1.2-0.3c-0.6,0-1.3,0.1-2.1,0.4l-0.3-1c1-0.3,1.8-0.5,2.7-0.5c0.9,0,1.6,0.2,2,0.7
		c0.4,0.4,0.7,1.1,0.7,1.9v3.5C131.7,104.7,131.8,104.9,131.9,105.1L131.9,105.1z M130.4,104.1v-1.8h-1c-1.4,0-2.1,0.5-2.1,1.6
		c0,0.5,0.1,0.8,0.3,1c0.2,0.2,0.6,0.3,1,0.3C129.4,105.3,130,104.9,130.4,104.1L130.4,104.1z"/>
	<path class="st8" d="M143.6,99.3c0.4,0.7,0.6,1.7,0.6,3c0,1.2-0.2,2.2-0.7,2.9s-1.1,1.1-1.9,1.1c-0.7,0-1.3-0.3-1.8-1v3.8l-1.3,0.2
		v-3.9c-0.2,0.3-0.5,0.6-0.8,0.7c-0.3,0.2-0.7,0.3-1.1,0.3c-0.8,0-1.4-0.4-1.9-1.1c-0.4-0.7-0.7-1.7-0.7-2.9s0.2-2.3,0.6-3
		c0.4-0.7,1.1-1.1,1.9-1.1c0.8,0,1.4,0.3,1.9,0.8v-3.9l1.3,0.2v3.8c0.4-0.6,1.1-0.9,1.8-0.9C142.5,98.3,143.1,98.6,143.6,99.3
		L143.6,99.3z M137.7,105c0.3-0.2,0.5-0.4,0.7-0.7v-4.1c-0.4-0.6-1-0.9-1.6-0.9c-0.4,0-0.8,0.2-1,0.7c-0.2,0.5-0.3,1.2-0.3,2.2
		s0.1,1.7,0.4,2.2c0.2,0.5,0.6,0.8,1,0.8C137.2,105.3,137.5,105.2,137.7,105L137.7,105z M142.3,104.5c0.2-0.5,0.4-1.2,0.4-2.2
		c0-2-0.5-3-1.4-3c-0.6,0-1.1,0.3-1.5,0.9v4.1c0.2,0.3,0.4,0.6,0.7,0.7c0.2,0.2,0.5,0.2,0.8,0.2C141.7,105.3,142.1,105,142.3,104.5
		L142.3,104.5z"/>
	<path class="st8" d="M152.5,106.2h-1.3v-3.5c0-0.6,0-1.1,0.1-1.7s0.1-0.9,0.1-1l-3.2,6.2h-1.6v-7.7h1.3v3.5c0,0.5,0,1.1-0.1,1.6
		c0,0.6-0.1,0.9-0.1,1.1l3.2-6.2h1.6L152.5,106.2L152.5,106.2z"/>
	<path class="st8" d="M164.1,98.4v7.7h-8.9v-7.7h1.3v6.6h2.5v-6.6h1.3v6.6h2.5v-6.6H164.1L164.1,98.4z"/>
	<path class="st8" d="M172.9,106.2h-1.3v-3.5c0-0.6,0-1.1,0.1-1.7s0.1-0.9,0.1-1l-3.2,6.2h-1.6v-7.7h1.3v3.5c0,0.5,0,1.1-0.1,1.6
		c0,0.6-0.1,0.9-0.1,1.1l3.2-6.2h1.6L172.9,106.2L172.9,106.2z"/>
	<path class="st8" d="M176.8,104.6c0.2,0.2,0.3,0.4,0.3,0.7s-0.1,0.5-0.3,0.7c-0.2,0.2-0.4,0.3-0.7,0.3s-0.5-0.1-0.7-0.3
		c-0.2-0.2-0.3-0.4-0.3-0.7s0.1-0.5,0.3-0.7c0.2-0.2,0.4-0.3,0.7-0.3S176.6,104.4,176.8,104.6z M176.8,96.1l-0.1,6.7h-1.2l-0.2-6.7
		H176.8L176.8,96.1z"/>
</g>
</svg>
